<?xml version="1.0" encoding="UTF-8" ?>
<svg width="1099pt" height="1105pt" viewBox="0.00 0.00 1098.71 1105.41" xmlns="http://www.w3.org/2000/svg" xmlns:xlink="http://www.w3.org/1999/xlink">
<g id="graph0" class="graph" transform="scale(1 1) rotate(0) translate(4 1101.4146)">
<title>perso</title>
<polygon fill="#ffffff" stroke="transparent" points="-4,4 -4,-1101.4146 1094.7053,-1101.4146 1094.7053,4 -4,4"/>
<!-- Equilibre. -->
<g id="node1" class="node">
<title>Equilibre.</title>
<ellipse fill="none" stroke="#c0c0c0" cx="535.9132" cy="-442.927" rx="49.2764" ry="49.2764"/>
<text text-anchor="middle" x="535.9132" y="-438.727" font-family="Segoe UI, Roboto, Arial" font-size="14.00" fill="#000000">Equilibre.</text>
</g>
<!-- Destin. -->
<g id="node2" class="node">
<title>Destin.</title>
<ellipse fill="none" stroke="#c0c0c0" cx="662.0902" cy="-535.3671" rx="38.8211" ry="38.8211"/>
<text text-anchor="middle" x="662.0902" y="-531.1671" font-family="Segoe UI, Roboto, Arial" font-size="14.00" fill="#000000">Destin.</text>
</g>
<!-- Equilibre.&#45;&gt;Destin. -->
<g id="edge1" class="edge">
<title>Equilibre.-&gt;Destin.</title>
<path fill="none" stroke="#000000" d="M575.8364,-472.1756C590.6835,-483.0529 607.5182,-495.3865 622.349,-506.2518"/>
<polygon fill="#000000" stroke="#000000" points="620.6841,-509.3708 630.8193,-512.4573 624.821,-503.724 620.6841,-509.3708"/>
</g>
<!-- Personnel. -->
<g id="node3" class="node">
<title>Personnel.</title>
<ellipse fill="none" stroke="#c0c0c0" cx="530.6559" cy="-572.3912" rx="51.5639" ry="51.5639"/>
<text text-anchor="middle" x="530.6559" y="-568.1912" font-family="Segoe UI, Roboto, Arial" font-size="14.00" fill="#000000">Personnel.</text>
</g>
<!-- Equilibre.&#45;&gt;Personnel. -->
<g id="edge2" class="edge">
<title>Equilibre.-&gt;Personnel.</title>
<path fill="none" stroke="#000000" d="M533.8956,-492.611C533.6582,-498.4583 533.4137,-504.4789 533.1705,-510.4675"/>
<polygon fill="#000000" stroke="#000000" points="529.6727,-510.3454 532.764,-520.4792 536.6669,-510.6294 529.6727,-510.3454"/>
</g>
<!-- Corporel. -->
<g id="node4" class="node">
<title>Corporel.</title>
<ellipse fill="none" stroke="#c0c0c0" cx="678.5565" cy="-409.5714" rx="47.5537" ry="47.5537"/>
<text text-anchor="middle" x="678.5565" y="-405.3714" font-family="Segoe UI, Roboto, Arial" font-size="14.00" fill="#000000">Corporel.</text>
</g>
<!-- Equilibre.&#45;&gt;Corporel. -->
<g id="edge3" class="edge">
<title>Equilibre.-&gt;Corporel.</title>
<path fill="none" stroke="#000000" d="M584.2057,-431.6343C596.323,-428.8008 609.4338,-425.735 621.9173,-422.8159"/>
<polygon fill="#000000" stroke="#000000" points="622.823,-426.1986 631.7634,-420.5135 621.2291,-419.3825 622.823,-426.1986"/>
</g>
<!-- Chance. -->
<g id="node5" class="node">
<title>Chance.</title>
<ellipse fill="none" stroke="#c0c0c0" cx="817.0177" cy="-477.4959" rx="42.3163" ry="42.3163"/>
<text text-anchor="middle" x="817.0177" y="-473.2959" font-family="Segoe UI, Roboto, Arial" font-size="14.00" fill="#000000">Chance.</text>
</g>
<!-- Destin.&#45;&gt;Chance. -->
<g id="edge4" class="edge">
<title>Destin.-&gt;Chance.</title>
<path fill="none" stroke="#000000" d="M698.4138,-521.7988C719.0738,-514.0816 745.2339,-504.3098 767.7257,-495.9083"/>
<polygon fill="#000000" stroke="#000000" points="768.9706,-499.1795 777.1137,-492.4015 766.5211,-492.6221 768.9706,-499.1795"/>
</g>
<!-- Karma. -->
<g id="node6" class="node">
<title>Karma.</title>
<ellipse fill="none" stroke="#c0c0c0" cx="819.303" cy="-605.9282" rx="39.9462" ry="39.9462"/>
<text text-anchor="middle" x="819.303" y="-601.7282" font-family="Segoe UI, Roboto, Arial" font-size="14.00" fill="#000000">Karma.</text>
</g>
<!-- Destin.&#45;&gt;Karma. -->
<g id="edge5" class="edge">
<title>Destin.-&gt;Karma.</title>
<path fill="none" stroke="#000000" d="M697.3718,-551.2023C719.9096,-561.3179 749.3577,-574.535 773.6675,-585.4458"/>
<polygon fill="#000000" stroke="#000000" points="772.4922,-588.7546 783.0486,-589.6563 775.3585,-582.3684 772.4922,-588.7546"/>
</g>
<!-- Inspire. -->
<g id="node7" class="node">
<title>Inspire.</title>
<ellipse fill="none" stroke="#c0c0c0" cx="672.7739" cy="-660.7746" rx="40.0279" ry="40.0279"/>
<text text-anchor="middle" x="672.7739" y="-656.5746" font-family="Segoe UI, Roboto, Arial" font-size="14.00" fill="#000000">Inspire.</text>
</g>
<!-- Personnel.&#45;&gt;Inspire. -->
<g id="edge6" class="edge">
<title>Personnel.-&gt;Inspire.</title>
<path fill="none" stroke="#000000" d="M574.4556,-599.6303C591.9575,-610.5147 612.0597,-623.0163 629.508,-633.8675"/>
<polygon fill="#000000" stroke="#000000" points="628.0224,-637.0652 638.3626,-639.3742 631.7192,-631.1209 628.0224,-637.0652"/>
</g>
<!-- Intérieur. -->
<g id="node8" class="node">
<title>Intérieur.</title>
<ellipse fill="none" stroke="#c0c0c0" cx="540.688" cy="-709.1744" rx="47.2168" ry="47.2168"/>
<text text-anchor="middle" x="540.688" y="-704.9744" font-family="Segoe UI, Roboto, Arial" font-size="14.00" fill="#000000">Intérieur.</text>
</g>
<!-- Personnel.&#45;&gt;Intérieur. -->
<g id="edge7" class="edge">
<title>Personnel.-&gt;Intérieur.</title>
<path fill="none" stroke="#000000" d="M534.4486,-624.1031C535.1098,-633.1177 535.8011,-642.544 536.4728,-651.7022"/>
<polygon fill="#000000" stroke="#000000" points="532.998,-652.1747 537.2202,-661.8919 539.9792,-651.6626 532.998,-652.1747"/>
</g>
<!-- Expire. -->
<g id="node9" class="node">
<title>Expire.</title>
<ellipse fill="none" stroke="#c0c0c0" cx="405.7474" cy="-622.2145" rx="39.3855" ry="39.3855"/>
<text text-anchor="middle" x="405.7474" y="-618.0145" font-family="Segoe UI, Roboto, Arial" font-size="14.00" fill="#000000">Expire.</text>
</g>
<!-- Personnel.&#45;&gt;Expire. -->
<g id="edge8" class="edge">
<title>Personnel.-&gt;Expire.</title>
<path fill="none" stroke="#000000" d="M482.7202,-591.5117C472.6058,-595.5462 461.9535,-599.7951 451.9061,-603.8028"/>
<polygon fill="#000000" stroke="#000000" points="450.4874,-600.6005 442.4958,-607.5564 453.0809,-607.1023 450.4874,-600.6005"/>
</g>
<!-- Extérieur. -->
<g id="node10" class="node">
<title>Extérieur.</title>
<ellipse fill="none" stroke="#c0c0c0" cx="406.9146" cy="-472.0536" rx="50.0857" ry="50.0857"/>
<text text-anchor="middle" x="406.9146" y="-467.8536" font-family="Segoe UI, Roboto, Arial" font-size="14.00" fill="#000000">Extérieur.</text>
</g>
<!-- Personnel.&#45;&gt;Extérieur. -->
<g id="edge9" class="edge">
<title>Personnel.-&gt;Extérieur.</title>
<path fill="none" stroke="#000000" d="M490.4807,-539.8145C478.7871,-530.3325 465.9096,-519.8906 453.8393,-510.1033"/>
<polygon fill="#000000" stroke="#000000" points="456.0164,-507.3625 446.0446,-503.7828 451.6075,-512.7997 456.0164,-507.3625"/>
</g>
<!-- Être. -->
<g id="node33" class="node">
<title>Être.</title>
<ellipse fill="none" stroke="#c0c0c0" cx="567.8106" cy="-322.9907" rx="29.0318" ry="29.0318"/>
<text text-anchor="middle" x="567.8106" y="-318.7907" font-family="Segoe UI, Roboto, Arial" font-size="14.00" fill="#000000">Être.</text>
</g>
<!-- Corporel.&#45;&gt;Être. -->
<g id="edge32" class="edge">
<title>Corporel.-&gt;Être.</title>
<path fill="none" stroke="#000000" d="M640.7538,-380.0174C627.1839,-369.4085 612.0433,-357.5717 599.0886,-347.4437"/>
<polygon fill="#000000" stroke="#000000" points="600.9635,-344.4668 590.9297,-341.0651 596.6521,-349.9816 600.9635,-344.4668"/>
</g>
<!-- Faire. -->
<g id="node34" class="node">
<title>Faire.</title>
<ellipse fill="none" stroke="#c0c0c0" cx="825.7015" cy="-331.9508" rx="33.0832" ry="33.0832"/>
<text text-anchor="middle" x="825.7015" y="-327.7508" font-family="Segoe UI, Roboto, Arial" font-size="14.00" fill="#000000">Faire.</text>
</g>
<!-- Corporel.&#45;&gt;Faire. -->
<g id="edge33" class="edge">
<title>Corporel.-&gt;Faire.</title>
<path fill="none" stroke="#000000" d="M721.1169,-387.1203C741.8736,-376.1709 766.6612,-363.0952 786.8939,-352.4222"/>
<polygon fill="#000000" stroke="#000000" points="788.6268,-355.4652 795.8386,-347.7037 785.3608,-349.2739 788.6268,-355.4652"/>
</g>
<!-- Perception. -->
<g id="node11" class="node">
<title>Perception.</title>
<ellipse fill="none" stroke="#c0c0c0" cx="819.7489" cy="-747.4969" rx="54.9946" ry="54.9946"/>
<text text-anchor="middle" x="819.7489" y="-743.2969" font-family="Segoe UI, Roboto, Arial" font-size="14.00" fill="#000000">Perception.</text>
</g>
<!-- Inspire.&#45;&gt;Perception. -->
<g id="edge10" class="edge">
<title>Inspire.-&gt;Perception.</title>
<path fill="none" stroke="#000000" d="M707.6049,-681.3266C724.3132,-691.1853 744.7485,-703.2431 763.576,-714.3522"/>
<polygon fill="#000000" stroke="#000000" points="761.9879,-717.479 772.3791,-719.5464 765.5452,-711.4502 761.9879,-717.479"/>
</g>
<!-- Empathie. -->
<g id="node12" class="node">
<title>Empathie.</title>
<ellipse fill="none" stroke="#c0c0c0" cx="797.6453" cy="-917.8927" rx="50.4201" ry="50.4201"/>
<text text-anchor="middle" x="797.6453" y="-913.6927" font-family="Segoe UI, Roboto, Arial" font-size="14.00" fill="#000000">Empathie.</text>
</g>
<!-- Inspire.&#45;&gt;Empathie. -->
<g id="edge11" class="edge">
<title>Inspire.-&gt;Empathie.</title>
<path fill="none" stroke="#000000" d="M690.4001,-697.068C711.4121,-740.333 746.7347,-813.0647 771.0665,-863.1652"/>
<polygon fill="#000000" stroke="#000000" points="767.9589,-864.7783 775.4759,-872.2445 774.2556,-861.7202 767.9589,-864.7783"/>
</g>
<!-- Intuition. -->
<g id="node13" class="node">
<title>Intuition.</title>
<ellipse fill="none" stroke="#c0c0c0" cx="659.3499" cy="-808.6791" rx="46.9292" ry="46.9292"/>
<text text-anchor="middle" x="659.3499" y="-804.4791" font-family="Segoe UI, Roboto, Arial" font-size="14.00" fill="#000000">Intuition.</text>
</g>
<!-- Inspire.&#45;&gt;Intuition. -->
<g id="edge12" class="edge">
<title>Inspire.-&gt;Intuition.</title>
<path fill="none" stroke="#000000" d="M669.1057,-701.1901C667.6914,-716.7728 666.0484,-734.8758 664.5184,-751.7325"/>
<polygon fill="#000000" stroke="#000000" points="661.0018,-751.758 663.5835,-762.0334 667.9732,-752.3908 661.0018,-751.758"/>
</g>
<!-- Intellect. -->
<g id="node17" class="node">
<title>Intellect.</title>
<ellipse fill="none" stroke="#c0c0c0" cx="527.5049" cy="-892.0101" rx="45.1778" ry="45.1778"/>
<text text-anchor="middle" x="527.5049" y="-887.8101" font-family="Segoe UI, Roboto, Arial" font-size="14.00" fill="#000000">Intellect.</text>
</g>
<!-- Intérieur.&#45;&gt;Intellect. -->
<g id="edge16" class="edge">
<title>Intérieur.-&gt;Intellect.</title>
<path fill="none" stroke="#000000" d="M537.2587,-756.735C535.4952,-781.1926 533.336,-811.1389 531.4978,-836.6329"/>
<polygon fill="#000000" stroke="#000000" points="527.9865,-836.665 530.7581,-846.8908 534.9683,-837.1684 527.9865,-836.665"/>
</g>
<!-- Contrôle. -->
<g id="node18" class="node">
<title>Contrôle.</title>
<ellipse fill="none" stroke="#c0c0c0" cx="419.4145" cy="-779.0459" rx="48.0916" ry="48.0916"/>
<text text-anchor="middle" x="419.4145" y="-774.8459" font-family="Segoe UI, Roboto, Arial" font-size="14.00" fill="#000000">Contrôle.</text>
</g>
<!-- Intérieur.&#45;&gt;Contrôle. -->
<g id="edge17" class="edge">
<title>Intérieur.-&gt;Contrôle.</title>
<path fill="none" stroke="#000000" d="M499.6303,-732.8297C490.1604,-738.2857 479.9769,-744.153 470.1499,-749.8148"/>
<polygon fill="#000000" stroke="#000000" points="468.1735,-746.9141 461.256,-754.939 471.6681,-752.9794 468.1735,-746.9141"/>
</g>
<!-- Santé Mentale. -->
<g id="node19" class="node">
<title>Santé Mentale.</title>
<ellipse fill="none" stroke="#c0c0c0" cx="282.9683" cy="-864.1936" rx="69.7487" ry="69.7487"/>
<text text-anchor="middle" x="282.9683" y="-859.9936" font-family="Segoe UI, Roboto, Arial" font-size="14.00" fill="#000000">Santé Mentale.</text>
</g>
<!-- Intérieur.&#45;&gt;Santé Mentale. -->
<g id="edge18" class="edge">
<title>Intérieur.-&gt;Santé Mentale.</title>
<path fill="none" stroke="#000000" d="M515.2095,-749.1021C499.7392,-770.7698 478.3569,-796.6696 454.2739,-814.3945 427.4893,-834.1078 393.0351,-846.0452 362.0579,-853.2616"/>
<polygon fill="#000000" stroke="#000000" points="361.1519,-849.8771 352.1366,-855.4425 362.6549,-856.7138 361.1519,-849.8771"/>
</g>
<!-- Volonté. -->
<g id="node22" class="node">
<title>Volonté.</title>
<ellipse fill="none" stroke="#c0c0c0" cx="93.9346" cy="-1027.319" rx="45.455" ry="45.455"/>
<text text-anchor="middle" x="93.9346" y="-1023.119" font-family="Segoe UI, Roboto, Arial" font-size="14.00" fill="#000000">Volonté.</text>
</g>
<!-- Expire.&#45;&gt;Volonté. -->
<g id="edge21" class="edge">
<title>Expire.-&gt;Volonté.</title>
<path fill="none" stroke="#000000" d="M379.0657,-651.2339C333.8343,-700.5042 245.7341,-796.8274 232.8367,-813.6 190.9443,-868.0791 148.7612,-935.1115 122.0572,-979.4173"/>
<polygon fill="#000000" stroke="#000000" points="118.9077,-977.8636 116.7635,-988.2392 124.91,-981.4654 118.9077,-977.8636"/>
</g>
<!-- Hargne. -->
<g id="node23" class="node">
<title>Hargne.</title>
<ellipse fill="none" stroke="#c0c0c0" cx="55.5063" cy="-801.5853" rx="41.735" ry="41.735"/>
<text text-anchor="middle" x="55.5063" y="-797.3853" font-family="Segoe UI, Roboto, Arial" font-size="14.00" fill="#000000">Hargne.</text>
</g>
<!-- Expire.&#45;&gt;Hargne. -->
<g id="edge22" class="edge">
<title>Expire.-&gt;Hargne.</title>
<path fill="none" stroke="#000000" d="M382.475,-654.3169C363.5891,-678.4829 335.0746,-711.005 304.0031,-732.4763 244.4273,-773.6448 160.9555,-790.3786 107.553,-797.1205"/>
<polygon fill="#000000" stroke="#000000" points="106.8066,-793.6844 97.2894,-798.3399 107.6326,-800.6356 106.8066,-793.6844"/>
</g>
<!-- Discrétion. -->
<g id="node24" class="node">
<title>Discrétion.</title>
<ellipse fill="none" stroke="#c0c0c0" cx="264.8015" cy="-692.5711" rx="54.1789" ry="54.1789"/>
<text text-anchor="middle" x="264.8015" y="-688.3711" font-family="Segoe UI, Roboto, Arial" font-size="14.00" fill="#000000">Discrétion.</text>
</g>
<!-- Expire.&#45;&gt;Discrétion. -->
<g id="edge23" class="edge">
<title>Expire.-&gt;Discrétion.</title>
<path fill="none" stroke="#000000" d="M370.5443,-639.787C356.1625,-646.966 339.1403,-655.463 323.0037,-663.518"/>
<polygon fill="#000000" stroke="#000000" points="321.0157,-660.5985 313.6317,-668.1963 324.1421,-666.8615 321.0157,-660.5985"/>
</g>
<!-- Sociabilité. -->
<g id="node25" class="node">
<title>Sociabilité.</title>
<ellipse fill="none" stroke="#c0c0c0" cx="265.8502" cy="-532.6779" rx="55.3398" ry="55.3398"/>
<text text-anchor="middle" x="265.8502" y="-528.4779" font-family="Segoe UI, Roboto, Arial" font-size="14.00" fill="#000000">Sociabilité.</text>
</g>
<!-- Extérieur.&#45;&gt;Sociabilité. -->
<g id="edge24" class="edge">
<title>Extérieur.-&gt;Sociabilité.</title>
<path fill="none" stroke="#000000" d="M360.7249,-491.9043C349.802,-496.5985 337.9913,-501.6743 326.5343,-506.5981"/>
<polygon fill="#000000" stroke="#000000" points="324.8263,-503.5225 317.0208,-510.6866 327.5903,-509.9538 324.8263,-503.5225"/>
</g>
<!-- Connaissance. -->
<g id="node26" class="node">
<title>Connaissance.</title>
<ellipse fill="none" stroke="#c0c0c0" cx="265.279" cy="-369.9237" rx="66.5931" ry="66.5931"/>
<text text-anchor="middle" x="265.279" y="-365.7237" font-family="Segoe UI, Roboto, Arial" font-size="14.00" fill="#000000">Connaissance.</text>
</g>
<!-- Extérieur.&#45;&gt;Connaissance. -->
<g id="edge25" class="edge">
<title>Extérieur.-&gt;Connaissance.</title>
<path fill="none" stroke="#000000" d="M365.9477,-442.5134C354.0183,-433.9114 340.7055,-424.3119 327.7687,-414.9835"/>
<polygon fill="#000000" stroke="#000000" points="329.4983,-411.9156 319.34,-408.9057 325.4041,-417.5935 329.4983,-411.9156"/>
</g>
<!-- Charisme. -->
<g id="node27" class="node">
<title>Charisme.</title>
<ellipse fill="none" stroke="#c0c0c0" cx="406.1652" cy="-324.8898" rx="50.4181" ry="50.4181"/>
<text text-anchor="middle" x="406.1652" y="-320.6898" font-family="Segoe UI, Roboto, Arial" font-size="14.00" fill="#000000">Charisme.</text>
</g>
<!-- Extérieur.&#45;&gt;Charisme. -->
<g id="edge26" class="edge">
<title>Extérieur.-&gt;Charisme.</title>
<path fill="none" stroke="#000000" d="M406.6588,-421.8198C406.5992,-410.1105 406.5351,-397.5212 406.4734,-385.4186"/>
<polygon fill="#000000" stroke="#000000" points="409.9734,-385.3789 406.4224,-375.3969 402.9735,-385.4146 409.9734,-385.3789"/>
</g>
<!-- Vue. -->
<g id="node14" class="node">
<title>Vue.</title>
<ellipse fill="none" stroke="#c0c0c0" cx="1032.3801" cy="-681.8079" rx="29.5746" ry="29.5746"/>
<text text-anchor="middle" x="1032.3801" y="-677.6079" font-family="Segoe UI, Roboto, Arial" font-size="14.00" fill="#000000">Vue.</text>
</g>
<!-- Perception.&#45;&gt;Vue. -->
<g id="edge13" class="edge">
<title>Perception.-&gt;Vue.</title>
<path fill="none" stroke="#000000" d="M872.3095,-731.2592C910.1424,-719.5713 960.2998,-704.076 994.3132,-693.5681"/>
<polygon fill="#000000" stroke="#000000" points="995.3652,-696.9064 1003.8865,-690.6106 993.2989,-690.2183 995.3652,-696.9064"/>
</g>
<!-- Ouïe. -->
<g id="node15" class="node">
<title>Ouïe.</title>
<ellipse fill="none" stroke="#c0c0c0" cx="1036.0547" cy="-839.7405" rx="38.2411" ry="38.2411"/>
<text text-anchor="middle" x="1036.0547" y="-835.5405" font-family="Segoe UI, Roboto, Arial" font-size="14.00" fill="#000000">Ouïe.</text>
</g>
<!-- Perception.&#45;&gt;Ouïe. -->
<g id="edge14" class="edge">
<title>Perception.-&gt;Ouïe.</title>
<path fill="none" stroke="#000000" d="M870.19,-769.0075C906.819,-784.628 955.938,-805.5748 991.2022,-820.6132"/>
<polygon fill="#000000" stroke="#000000" points="990.1877,-823.9855 1000.7592,-824.6888 992.9336,-817.5465 990.1877,-823.9855"/>
</g>
<!-- Odorat. -->
<g id="node16" class="node">
<title>Odorat.</title>
<ellipse fill="none" stroke="#c0c0c0" cx="992.6599" cy="-1042.4583" rx="40.0298" ry="40.0298"/>
<text text-anchor="middle" x="992.6599" y="-1038.2583" font-family="Segoe UI, Roboto, Arial" font-size="14.00" fill="#000000">Odorat.</text>
</g>
<!-- Perception.&#45;&gt;Odorat. -->
<g id="edge15" class="edge">
<title>Perception.-&gt;Odorat.</title>
<path fill="none" stroke="#000000" d="M847.5301,-794.8876C880.5372,-851.193 935.1481,-944.3513 967.1327,-998.9125"/>
<polygon fill="#000000" stroke="#000000" points="964.1797,-1000.796 972.2565,-1007.6529 970.2186,-997.2559 964.1797,-1000.796"/>
</g>
<!-- Langage. -->
<g id="node20" class="node">
<title>Langage.</title>
<ellipse fill="none" stroke="#c0c0c0" cx="658.6033" cy="-1050.7188" rx="46.8923" ry="46.8923"/>
<text text-anchor="middle" x="658.6033" y="-1046.5188" font-family="Segoe UI, Roboto, Arial" font-size="14.00" fill="#000000">Langage.</text>
</g>
<!-- Intellect.&#45;&gt;Langage. -->
<g id="edge19" class="edge">
<title>Intellect.-&gt;Langage.</title>
<path fill="none" stroke="#000000" d="M556.275,-926.8394C575.6585,-950.3052 601.3861,-981.4513 622.1946,-1006.6421"/>
<polygon fill="#000000" stroke="#000000" points="619.6964,-1009.1136 628.7634,-1014.5945 625.0933,-1004.6556 619.6964,-1009.1136"/>
</g>
<!-- Logique. -->
<g id="node21" class="node">
<title>Logique.</title>
<ellipse fill="none" stroke="#c0c0c0" cx="392.1583" cy="-1042.8897" rx="45.7693" ry="45.7693"/>
<text text-anchor="middle" x="392.1583" y="-1038.6897" font-family="Segoe UI, Roboto, Arial" font-size="14.00" fill="#000000">Logique.</text>
</g>
<!-- Intellect.&#45;&gt;Logique. -->
<g id="edge20" class="edge">
<title>Intellect.-&gt;Logique.</title>
<path fill="none" stroke="#000000" d="M497.1305,-925.8704C477.0871,-948.214 450.6955,-977.6345 429.3895,-1001.3856"/>
<polygon fill="#000000" stroke="#000000" points="426.7373,-999.1006 422.6652,-1008.8817 431.9481,-1003.7749 426.7373,-999.1006"/>
</g>
<!-- Technique. -->
<g id="node28" class="node">
<title>Technique.</title>
<ellipse fill="none" stroke="#c0c0c0" cx="58.9794" cy="-622.1351" rx="54.4166" ry="54.4166"/>
<text text-anchor="middle" x="58.9794" y="-617.9351" font-family="Segoe UI, Roboto, Arial" font-size="14.00" fill="#000000">Technique.</text>
</g>
<!-- Connaissance.&#45;&gt;Technique. -->
<g id="edge27" class="edge">
<title>Connaissance.-&gt;Technique.</title>
<path fill="none" stroke="#000000" d="M223.0334,-421.571C186.9665,-465.6646 135.4223,-528.6799 99.7776,-572.2573"/>
<polygon fill="#000000" stroke="#000000" points="96.9366,-570.2026 93.3143,-580.159 102.3549,-574.6346 96.9366,-570.2026"/>
</g>
<!-- Histoire. -->
<g id="node29" class="node">
<title>Histoire.</title>
<ellipse fill="none" stroke="#c0c0c0" cx="60.011" cy="-462.783" rx="44.6174" ry="44.6174"/>
<text text-anchor="middle" x="60.011" y="-458.583" font-family="Segoe UI, Roboto, Arial" font-size="14.00" fill="#000000">Histoire.</text>
</g>
<!-- Connaissance.&#45;&gt;Histoire. -->
<g id="edge28" class="edge">
<title>Connaissance.-&gt;Histoire.</title>
<path fill="none" stroke="#000000" d="M204.525,-397.4076C174.4667,-411.0054 138.6237,-427.2201 110.154,-440.0993"/>
<polygon fill="#000000" stroke="#000000" points="108.4692,-437.0199 100.8007,-444.3305 111.3544,-443.3977 108.4692,-437.0199"/>
</g>
<!-- Géographie. -->
<g id="node30" class="node">
<title>Géographie.</title>
<ellipse fill="none" stroke="#c0c0c0" cx="59.16" cy="-292.1158" rx="59.3204" ry="59.3204"/>
<text text-anchor="middle" x="59.16" y="-287.9158" font-family="Segoe UI, Roboto, Arial" font-size="14.00" fill="#000000">Géographie.</text>
</g>
<!-- Connaissance.&#45;&gt;Géographie. -->
<g id="edge29" class="edge">
<title>Connaissance.-&gt;Géographie.</title>
<path fill="none" stroke="#000000" d="M202.8772,-346.3676C177.9765,-336.9679 149.3046,-326.1445 124.1524,-316.6498"/>
<polygon fill="#000000" stroke="#000000" points="125.2918,-313.3389 114.7001,-313.0817 122.8196,-319.8879 125.2918,-313.3389"/>
</g>
<!-- Politique. -->
<g id="node31" class="node">
<title>Politique.</title>
<ellipse fill="none" stroke="#c0c0c0" cx="79.6074" cy="-66.1835" rx="48.1523" ry="48.1523"/>
<text text-anchor="middle" x="79.6074" y="-61.9835" font-family="Segoe UI, Roboto, Arial" font-size="14.00" fill="#000000">Politique.</text>
</g>
<!-- Connaissance.&#45;&gt;Politique. -->
<g id="edge30" class="edge">
<title>Connaissance.-&gt;Politique.</title>
<path fill="none" stroke="#000000" d="M230.3556,-312.7925C195.7267,-256.1431 143.1986,-170.2123 110.1747,-116.1886"/>
<polygon fill="#000000" stroke="#000000" points="113.0491,-114.18 104.8472,-107.4733 107.0766,-117.8309 113.0491,-114.18"/>
</g>
<!-- Langues. -->
<g id="node32" class="node">
<title>Langues.</title>
<ellipse fill="none" stroke="#c0c0c0" cx="275.1848" cy="-187.8178" rx="46.3298" ry="46.3298"/>
<text text-anchor="middle" x="275.1848" y="-183.6178" font-family="Segoe UI, Roboto, Arial" font-size="14.00" fill="#000000">Langues.</text>
</g>
<!-- Connaissance.&#45;&gt;Langues. -->
<g id="edge31" class="edge">
<title>Connaissance.-&gt;Langues.</title>
<path fill="none" stroke="#000000" d="M268.8973,-303.4063C269.9558,-283.946 271.1023,-262.8699 272.1227,-244.1102"/>
<polygon fill="#000000" stroke="#000000" points="275.6269,-244.1268 272.6753,-233.9515 268.6372,-243.7466 275.6269,-244.1268"/>
</g>
<!-- Force. -->
<g id="node35" class="node">
<title>Force.</title>
<ellipse fill="none" stroke="#c0c0c0" cx="375.5438" cy="-40.298" rx="35.3716" ry="35.3716"/>
<text text-anchor="middle" x="375.5438" y="-36.098" font-family="Segoe UI, Roboto, Arial" font-size="14.00" fill="#000000">Force.</text>
</g>
<!-- Être.&#45;&gt;Force. -->
<g id="edge34" class="edge">
<title>Être.-&gt;Force.</title>
<path fill="none" stroke="#000000" d="M563.4458,-293.9104C557.855,-263.8659 545.9573,-216.6358 522.62,-182.2206 491.777,-136.7367 444.4227,-94.3427 411.8238,-67.9471"/>
<polygon fill="#000000" stroke="#000000" points="413.8687,-65.1009 403.8728,-61.5889 409.4969,-70.5678 413.8687,-65.1009"/>
</g>
<!-- Souplesse. -->
<g id="node36" class="node">
<title>Souplesse.</title>
<ellipse fill="none" stroke="#c0c0c0" cx="484.51" cy="-220.0146" rx="52.1456" ry="52.1456"/>
<text text-anchor="middle" x="484.51" y="-215.8146" font-family="Segoe UI, Roboto, Arial" font-size="14.00" fill="#000000">Souplesse.</text>
</g>
<!-- Être.&#45;&gt;Souplesse. -->
<g id="edge35" class="edge">
<title>Être.-&gt;Souplesse.</title>
<path fill="none" stroke="#000000" d="M549.3235,-300.1369C541.7638,-290.7916 532.7113,-279.6009 523.803,-268.5886"/>
<polygon fill="#000000" stroke="#000000" points="526.3757,-266.2038 517.3653,-260.6303 520.9334,-270.6063 526.3757,-266.2038"/>
</g>
<!-- Constitution. -->
<g id="node37" class="node">
<title>Constitution.</title>
<ellipse fill="none" stroke="#c0c0c0" cx="559.7813" cy="-67.1731" rx="61.4152" ry="61.4152"/>
<text text-anchor="middle" x="559.7813" y="-62.9731" font-family="Segoe UI, Roboto, Arial" font-size="14.00" fill="#000000">Constitution.</text>
</g>
<!-- Être.&#45;&gt;Constitution. -->
<g id="edge36" class="edge">
<title>Être.-&gt;Constitution.</title>
<path fill="none" stroke="#000000" d="M566.8895,-293.6451C565.7098,-256.0571 563.6256,-189.6553 562.0181,-138.4377"/>
<polygon fill="#000000" stroke="#000000" points="565.5154,-138.2949 561.7033,-128.4097 558.5188,-138.5146 565.5154,-138.2949"/>
</g>
<!-- Réflexe. -->
<g id="node38" class="node">
<title>Réflexe.</title>
<ellipse fill="none" stroke="#c0c0c0" cx="713.6038" cy="-44.1434" rx="44.2873" ry="44.2873"/>
<text text-anchor="middle" x="713.6038" y="-39.9434" font-family="Segoe UI, Roboto, Arial" font-size="14.00" fill="#000000">Réflexe.</text>
</g>
<!-- Être.&#45;&gt;Réflexe. -->
<g id="edge37" class="edge">
<title>Être.-&gt;Réflexe.</title>
<path fill="none" stroke="#000000" d="M581.3955,-297.0078C605.7529,-250.4214 657.2038,-152.0153 688.2498,-92.6361"/>
<polygon fill="#000000" stroke="#000000" points="691.5183,-93.9386 693.05,-83.4551 685.315,-90.6952 691.5183,-93.9386"/>
</g>
<!-- Endurance. -->
<g id="node39" class="node">
<title>Endurance.</title>
<ellipse fill="none" stroke="#c0c0c0" cx="687.097" cy="-251.9635" rx="54.9791" ry="54.9791"/>
<text text-anchor="middle" x="687.097" y="-247.7635" font-family="Segoe UI, Roboto, Arial" font-size="14.00" fill="#000000">Endurance.</text>
</g>
<!-- Être.&#45;&gt;Endurance. -->
<g id="edge38" class="edge">
<title>Être.-&gt;Endurance.</title>
<path fill="none" stroke="#000000" d="M593.1082,-307.9276C604.2161,-301.3136 617.7351,-293.2639 631.0175,-285.3551"/>
<polygon fill="#000000" stroke="#000000" points="632.8825,-288.3181 639.6841,-280.1947 629.3012,-282.3036 632.8825,-288.3181"/>
</g>
<!-- Combat Rapproché. -->
<g id="node40" class="node">
<title>Combat Rapproché.</title>
<ellipse fill="none" stroke="#c0c0c0" cx="839.8279" cy="-122.9668" rx="88.8782" ry="88.8782"/>
<text text-anchor="middle" x="839.8279" y="-118.7668" font-family="Segoe UI, Roboto, Arial" font-size="14.00" fill="#000000">Combat Rapproché.</text>
</g>
<!-- Faire.&#45;&gt;Combat Rapproché. -->
<g id="edge39" class="edge">
<title>Faire.-&gt;Combat Rapproché.</title>
<path fill="none" stroke="#000000" d="M827.9711,-298.3739C829.3812,-277.5134 831.2739,-249.5134 833.1325,-222.0171"/>
<polygon fill="#000000" stroke="#000000" points="836.6323,-222.1372 833.8148,-211.9239 829.6482,-221.665 836.6323,-222.1372"/>
</g>
<!-- Tir Visé. -->
<g id="node41" class="node">
<title>Tir Visé.</title>
<ellipse fill="none" stroke="#c0c0c0" cx="1030.3698" cy="-64.6064" rx="46.0511" ry="46.0511"/>
<text text-anchor="middle" x="1030.3698" y="-60.4064" font-family="Segoe UI, Roboto, Arial" font-size="14.00" fill="#000000">Tir Visé.</text>
</g>
<!-- Faire.&#45;&gt;Tir Visé. -->
<g id="edge40" class="edge">
<title>Faire.-&gt;Tir Visé.</title>
<path fill="none" stroke="#000000" d="M846.0741,-305.3394C881.1531,-259.5181 953.3131,-165.2604 996.1942,-109.2477"/>
<polygon fill="#000000" stroke="#000000" points="999.0009,-111.3392 1002.3006,-101.2713 993.4426,-107.084 999.0009,-111.3392"/>
</g>
<!-- Dextérité. -->
<g id="node42" class="node">
<title>Dextérité.</title>
<ellipse fill="none" stroke="#c0c0c0" cx="1029.516" cy="-274.4994" rx="50.9153" ry="50.9153"/>
<text text-anchor="middle" x="1029.516" y="-270.2994" font-family="Segoe UI, Roboto, Arial" font-size="14.00" fill="#000000">Dextérité.</text>
</g>
<!-- Faire.&#45;&gt;Dextérité. -->
<g id="edge41" class="edge">
<title>Faire.-&gt;Dextérité.</title>
<path fill="none" stroke="#000000" d="M857.9965,-322.8474C888.161,-314.3446 933.9125,-301.4482 970.5786,-291.1127"/>
<polygon fill="#000000" stroke="#000000" points="971.9835,-294.3532 980.6589,-288.2713 970.0843,-287.6157 971.9835,-294.3532"/>
</g>
<!-- Athlétisme. -->
<g id="node43" class="node">
<title>Athlétisme.</title>
<ellipse fill="none" stroke="#c0c0c0" cx="1034.2136" cy="-421.1666" rx="56.4835" ry="56.4835"/>
<text text-anchor="middle" x="1034.2136" y="-416.9666" font-family="Segoe UI, Roboto, Arial" font-size="14.00" fill="#000000">Athlétisme.</text>
</g>
<!-- Faire.&#45;&gt;Athlétisme. -->
<g id="edge42" class="edge">
<title>Faire.-&gt;Athlétisme.</title>
<path fill="none" stroke="#000000" d="M856.4682,-345.1149C886.8582,-358.1178 934.1987,-378.3733 972.3839,-394.7116"/>
<polygon fill="#000000" stroke="#000000" points="971.3083,-398.0583 981.8789,-398.7742 974.062,-391.6226 971.3083,-398.0583"/>
</g>
<!-- Agilité. -->
<g id="node44" class="node">
<title>Agilité.</title>
<ellipse fill="none" stroke="#c0c0c0" cx="1028.5024" cy="-550.2126" rx="40.8747" ry="40.8747"/>
<text text-anchor="middle" x="1028.5024" y="-546.0126" font-family="Segoe UI, Roboto, Arial" font-size="14.00" fill="#000000">Agilité.</text>
</g>
<!-- Faire.&#45;&gt;Agilité. -->
<g id="edge43" class="edge">
<title>Faire.-&gt;Agilité.</title>
<path fill="none" stroke="#000000" d="M848.5711,-356.5639C883.9217,-394.6095 952.0826,-467.9669 993.6121,-512.6624"/>
<polygon fill="#000000" stroke="#000000" points="991.1699,-515.1759 1000.5408,-520.1193 996.2979,-510.4111 991.1699,-515.1759"/>
</g>
</g>
</svg>